<svg id="visual" viewBox="0 0 900 600" width="900" height="600" xmlns="http://www.w3.org/2000/svg" xmlns:xlink="http://www.w3.org/1999/xlink" version="1.1"><path d="M0 103L25 103C50 103 100 103 150 92C200 81 250 59 300 45C350 31 400 25 450 29C500 33 550 47 600 62C650 77 700 93 750 119C800 145 850 181 875 199L900 217L900 0L875 0C850 0 800 0 750 0C700 0 650 0 600 0C550 0 500 0 450 0C400 0 350 0 300 0C250 0 200 0 150 0C100 0 50 0 25 0L0 0Z" fill="#1b4a5a"></path><path d="M0 103L25 110C50 117 100 131 150 121C200 111 250 77 300 63C350 49 400 55 450 63C500 71 550 81 600 95C650 109 700 127 750 156C800 185 850 225 875 245L900 265L900 215L875 197C850 179 800 143 750 117C700 91 650 75 600 60C550 45 500 31 450 27C400 23 350 29 300 43C250 57 200 79 150 90C100 101 50 101 25 101L0 101Z" fill="#0a5763"></path><path d="M0 211L25 201C50 191 100 171 150 157C200 143 250 135 300 126C350 117 400 107 450 113C500 119 550 141 600 162C650 183 700 203 750 233C800 263 850 303 875 323L900 343L900 263L875 243C850 223 800 183 750 154C700 125 650 107 600 93C550 79 500 69 450 61C400 53 350 47 300 61C250 75 200 109 150 119C100 129 50 115 25 108L0 101Z" fill="#006369"></path><path d="M0 253L25 240C50 227 100 201 150 190C200 179 250 183 300 171C350 159 400 131 450 134C500 137 550 171 600 193C650 215 700 225 750 250C800 275 850 315 875 335L900 355L900 341L875 321C850 301 800 261 750 231C700 201 650 181 600 160C550 139 500 117 450 111C400 105 350 115 300 124C250 133 200 141 150 155C100 169 50 189 25 199L0 209Z" fill="#00706a"></path><path d="M0 271L25 258C50 245 100 219 150 213C200 207 250 221 300 210C350 199 400 163 450 163C500 163 550 199 600 226C650 253 700 271 750 297C800 323 850 357 875 374L900 391L900 353L875 333C850 313 800 273 750 248C700 223 650 213 600 191C550 169 500 135 450 132C400 129 350 157 300 169C250 181 200 177 150 188C100 199 50 225 25 238L0 251Z" fill="#1a7c68"></path><path d="M0 415L25 401C50 387 100 359 150 356C200 353 250 375 300 378C350 381 400 365 450 377C500 389 550 429 600 429C650 429 700 389 750 381C800 373 850 397 875 409L900 421L900 389L875 372C850 355 800 321 750 295C700 269 650 251 600 224C550 197 500 161 450 161C400 161 350 197 300 208C250 219 200 205 150 211C100 217 50 243 25 256L0 269Z" fill="#378862"></path><path d="M0 427L25 415C50 403 100 379 150 381C200 383 250 411 300 414C350 417 400 395 450 404C500 413 550 453 600 451C650 449 700 405 750 396C800 387 850 413 875 426L900 439L900 419L875 407C850 395 800 371 750 379C700 387 650 427 600 427C550 427 500 387 450 375C400 363 350 379 300 376C250 373 200 351 150 354C100 357 50 385 25 399L0 413Z" fill="#54925a"></path><path d="M0 493L25 477C50 461 100 429 150 424C200 419 250 441 300 443C350 445 400 427 450 433C500 439 550 469 600 472C650 475 700 451 750 454C800 457 850 487 875 502L900 517L900 437L875 424C850 411 800 385 750 394C700 403 650 447 600 449C550 451 500 411 450 402C400 393 350 415 300 412C250 409 200 381 150 379C100 377 50 401 25 413L0 425Z" fill="#729b51"></path><path d="M0 553L25 544C50 535 100 517 150 505C200 493 250 487 300 488C350 489 400 497 450 501C500 505 550 505 600 502C650 499 700 493 750 499C800 505 850 523 875 532L900 541L900 515L875 500C850 485 800 455 750 452C700 449 650 473 600 470C550 467 500 437 450 431C400 425 350 443 300 441C250 439 200 417 150 422C100 427 50 459 25 475L0 491Z" fill="#92a34a"></path><path d="M0 571L25 573C50 575 100 579 150 575C200 571 250 559 300 546C350 533 400 519 450 525C500 531 550 557 600 564C650 571 700 559 750 553C800 547 850 547 875 547L900 547L900 539L875 530C850 521 800 503 750 497C700 491 650 497 600 500C550 503 500 503 450 499C400 495 350 487 300 486C250 485 200 491 150 503C100 515 50 533 25 542L0 551Z" fill="#b5a947"></path><path d="M0 589L25 589C50 589 100 589 150 585C200 581 250 573 300 567C350 561 400 557 450 561C500 565 550 577 600 584C650 591 700 593 750 587C800 581 850 567 875 560L900 553L900 545L875 545C850 545 800 545 750 551C700 557 650 569 600 562C550 555 500 529 450 523C400 517 350 531 300 544C250 557 200 569 150 573C100 577 50 573 25 571L0 569Z" fill="#d9ad4a"></path><path d="M0 601L25 601C50 601 100 601 150 601C200 601 250 601 300 601C350 601 400 601 450 601C500 601 550 601 600 601C650 601 700 601 750 601C800 601 850 601 875 601L900 601L900 551L875 558C850 565 800 579 750 585C700 591 650 589 600 582C550 575 500 563 450 559C400 555 350 559 300 565C250 571 200 579 150 583C100 587 50 587 25 587L0 587Z" fill="#feae57"></path></svg>