<svg id="visual" viewBox="0 0 675 900" width="675" height="900" xmlns="http://www.w3.org/2000/svg" xmlns:xlink="http://www.w3.org/1999/xlink" version="1.1"><path d="M0 370L28.2 358C56.3 346 112.7 322 169 296.5C225.3 271 281.7 244 337.8 248.5C394 253 450 289 506.2 311.5C562.3 334 618.7 343 646.8 347.5L675 352L675 0L646.8 0C618.7 0 562.3 0 506.2 0C450 0 394 0 337.8 0C281.7 0 225.3 0 169 0C112.7 0 56.3 0 28.2 0L0 0Z" fill="#2f4156"></path><path d="M0 568L28.2 559C56.3 550 112.7 532 169 538C225.3 544 281.7 574 337.8 589C394 604 450 604 506.2 605.5C562.3 607 618.7 610 646.8 611.5L675 613L675 350L646.8 345.5C618.7 341 562.3 332 506.2 309.5C450 287 394 251 337.8 246.5C281.7 242 225.3 269 169 294.5C112.7 320 56.3 344 28.2 356L0 368Z" fill="#707b8b"></path><path d="M0 811L28.2 805C56.3 799 112.7 787 169 769C225.3 751 281.7 727 337.8 731.5C394 736 450 769 506.2 785.5C562.3 802 618.7 802 646.8 802L675 802L675 611L646.8 609.5C618.7 608 562.3 605 506.2 603.5C450 602 394 602 337.8 587C281.7 572 225.3 542 169 536C112.7 530 56.3 548 28.2 557L0 566Z" fill="#b5bbc4"></path><path d="M0 901L28.2 901C56.3 901 112.7 901 169 901C225.3 901 281.7 901 337.8 901C394 901 450 901 506.2 901C562.3 901 618.7 901 646.8 901L675 901L675 800L646.8 800C618.7 800 562.3 800 506.2 783.5C450 767 394 734 337.8 729.5C281.7 725 225.3 749 169 767C112.7 785 56.3 797 28.2 803L0 809Z" fill="#ffffff"></path></svg>