<svg id="visual" viewBox="0 0 900 600" width="900" height="600" xmlns="http://www.w3.org/2000/svg" xmlns:xlink="http://www.w3.org/1999/xlink" version="1.1"><path d="M0 67L25 55.8C50 44.7 100 22.3 150 15.3C200 8.3 250 16.7 300 23.8C350 31 400 37 450 42C500 47 550 51 600 53C650 55 700 55 750 51C800 47 850 39 875 35L900 31L900 0L875 0C850 0 800 0 750 0C700 0 650 0 600 0C550 0 500 0 450 0C400 0 350 0 300 0C250 0 200 0 150 0C100 0 50 0 25 0L0 0Z" fill="#1b4a5a"></path><path d="M0 127L25 127C50 127 100 127 150 131C200 135 250 143 300 139C350 135 400 119 450 116C500 113 550 123 600 127C650 131 700 129 750 134C800 139 850 151 875 157L900 163L900 29L875 33C850 37 800 45 750 49C700 53 650 53 600 51C550 49 500 45 450 40C400 35 350 29 300 22.2C250 15.3 200 7.7 150 14.7C100 21.7 50 43.3 25 54.2L0 65Z" fill="#325968"></path><path d="M0 223L25 217C50 211 100 199 150 196C200 193 250 199 300 198C350 197 400 189 450 193C500 197 550 213 600 224C650 235 700 241 750 253C800 265 850 283 875 292L900 301L900 161L875 155C850 149 800 137 750 132C700 127 650 129 600 125C550 121 500 111 450 114C400 117 350 133 300 137C250 141 200 133 150 129C100 125 50 125 25 125L0 125Z" fill="#466876"></path><path d="M0 475L25 445C50 415 100 355 150 341C200 327 250 359 300 370C350 381 400 371 450 371C500 371 550 381 600 378C650 375 700 359 750 351C800 343 850 343 875 343L900 343L900 299L875 290C850 281 800 263 750 251C700 239 650 233 600 222C550 211 500 195 450 191C400 187 350 195 300 196C250 197 200 191 150 194C100 197 50 209 25 215L0 221Z" fill="#5a7884"></path><path d="M0 481L25 450C50 419 100 357 150 344C200 331 250 367 300 378C350 389 400 375 450 382C500 389 550 417 600 424C650 431 700 417 750 404C800 391 850 379 875 373L900 367L900 341L875 341C850 341 800 341 750 349C700 357 650 373 600 376C550 379 500 369 450 369C400 369 350 379 300 368C250 357 200 325 150 339C100 353 50 413 25 443L0 473Z" fill="#6e8793"></path><path d="M0 511L25 477C50 443 100 375 150 366C200 357 250 407 300 422C350 437 400 417 450 420C500 423 550 449 600 454C650 459 700 443 750 428C800 413 850 399 875 392L900 385L900 365L875 371C850 377 800 389 750 402C700 415 650 429 600 422C550 415 500 387 450 380C400 373 350 387 300 376C250 365 200 329 150 342C100 355 50 417 25 448L0 479Z" fill="#8298a1"></path><path d="M0 547L25 519C50 491 100 435 150 422C200 409 250 439 300 447C350 455 400 441 450 443C500 445 550 463 600 466C650 469 700 457 750 445C800 433 850 421 875 415L900 409L900 383L875 390C850 397 800 411 750 426C700 441 650 457 600 452C550 447 500 421 450 418C400 415 350 435 300 420C250 405 200 355 150 364C100 373 50 441 25 475L0 509Z" fill="#96a8b1"></path><path d="M0 577L25 564C50 551 100 525 150 516C200 507 250 515 300 515C350 515 400 507 450 507C500 507 550 515 600 511C650 507 700 491 750 487C800 483 850 491 875 495L900 499L900 407L875 413C850 419 800 431 750 443C700 455 650 467 600 464C550 461 500 443 450 441C400 439 350 453 300 445C250 437 200 407 150 420C100 433 50 489 25 517L0 545Z" fill="#aab9c0"></path><path d="M0 583L25 574C50 565 100 547 150 539C200 531 250 533 300 533C350 533 400 531 450 534C500 537 550 545 600 541C650 537 700 521 750 515C800 509 850 513 875 515L900 517L900 497L875 493C850 489 800 481 750 485C700 489 650 505 600 509C550 513 500 505 450 505C400 505 350 513 300 513C250 513 200 505 150 514C100 523 50 549 25 562L0 575Z" fill="#bfcacf"></path><path d="M0 595L25 586C50 577 100 559 150 552C200 545 250 549 300 548C350 547 400 541 450 543C500 545 550 555 600 558C650 561 700 557 750 552C800 547 850 541 875 538L900 535L900 515L875 513C850 511 800 507 750 513C700 519 650 535 600 539C550 543 500 535 450 532C400 529 350 531 300 531C250 531 200 529 150 537C100 545 50 563 25 572L0 581Z" fill="#d4dcdf"></path><path d="M0 595L25 596C50 597 100 599 150 599C200 599 250 597 300 592C350 587 400 579 450 579C500 579 550 587 600 590C650 593 700 591 750 587C800 583 850 577 875 574L900 571L900 533L875 536C850 539 800 545 750 550C700 555 650 559 600 556C550 553 500 543 450 541C400 539 350 545 300 546C250 547 200 543 150 550C100 557 50 575 25 584L0 593Z" fill="#e9edef"></path><path d="M0 601L25 601C50 601 100 601 150 601C200 601 250 601 300 601C350 601 400 601 450 601C500 601 550 601 600 601C650 601 700 601 750 601C800 601 850 601 875 601L900 601L900 569L875 572C850 575 800 581 750 585C700 589 650 591 600 588C550 585 500 577 450 577C400 577 350 585 300 590C250 595 200 597 150 597C100 597 50 595 25 594L0 593Z" fill="#ffffff"></path></svg>